<svg width="11" height="8" viewBox="0 0 11 8" fill="none" xmlns="http://www.w3.org/2000/svg">
<path d="M11 1.21654V0.748497C11 0.404776 10.7108 0.125137 10.3553 0.125137H0.64466C0.289201 0.125137 0 0.404776 0 0.748497V1.21654H11Z" fill="#959EA9"/>
<path d="M0 1.67804H11V3.34908H0V1.67804Z" fill="#959EA9"/>
<path d="M0 3.2944V7.08703C0 7.43075 0.289201 7.71039 0.64466 7.71039H10.3553C10.7108 7.71039 11 7.43075 11 7.08703V3.2944H0ZM7.52632 4.82109H6.02241C5.84439 4.82109 5.70008 4.68154 5.70008 4.50941C5.70008 4.33728 5.84439 4.19773 6.02241 4.19773H7.52632C7.70434 4.19773 7.84865 4.33728 7.84865 4.50941C7.84865 4.68154 7.70434 4.82109 7.52632 4.82109Z" fill="#959EA9"/>
</svg>
