<svg width="14" height="15" viewBox="0 0 14 15" fill="none" xmlns="http://www.w3.org/2000/svg">
<path d="M12.8748 10.4535H12.4085V9.59868C12.4085 9.38409 12.2345 9.21011 12.0199 9.21011C11.8053 9.21011 11.6314 9.38409 11.6314 9.59868V10.4535H11.1133V14.1579H12.8748C13.0894 14.1579 13.2634 13.9839 13.2634 13.7693V10.8421C13.2634 10.6275 13.0894 10.4535 12.8748 10.4535Z" fill="#8396A1"/>
<path d="M2.15008 10.4535H1.63199V9.59868C1.63199 9.38409 1.45801 9.21011 1.24342 9.21011C1.02883 9.21011 0.854852 9.38409 0.854852 9.59868V10.4535H0.388569C0.173975 10.4535 0 10.6275 0 10.8421V13.7693C0 13.9839 0.173975 14.1579 0.388569 14.1579H2.15008V10.4535Z" fill="#8396A1"/>
<path d="M2.92676 14.1579H4.79189V12.0855C4.79189 11.8709 4.96586 11.697 5.18046 11.697H8.08177C8.29637 11.697 8.47034 11.8709 8.47034 12.0855V14.1579H10.3355C10.3355 13.5156 10.3355 1.87635 10.3355 1.28331C10.3355 1.06872 10.1615 0.894745 9.94691 0.894745H3.31533C3.10073 0.894745 2.92676 1.06872 2.92676 1.28331V14.1579ZM5.59493 9.98726H5.18046C4.96586 9.98726 4.79189 9.81329 4.79189 9.59869C4.79189 9.3841 4.96586 9.21012 5.18046 9.21012H5.59493C5.80953 9.21012 5.9835 9.3841 5.9835 9.59869C5.9835 9.81329 5.80953 9.98726 5.59493 9.98726ZM5.59493 8.32937H5.18046C4.96586 8.32937 4.79189 8.15539 4.79189 7.9408C4.79189 7.7262 4.96586 7.55223 5.18046 7.55223H5.59493C5.80953 7.55223 5.9835 7.7262 5.9835 7.9408C5.9835 8.15539 5.80953 8.32937 5.59493 8.32937ZM5.59493 6.67147H5.18046C4.96586 6.67147 4.79189 6.4975 4.79189 6.2829C4.79189 6.06831 4.96586 5.89433 5.18046 5.89433H5.59493C5.80953 5.89433 5.9835 6.06831 5.9835 6.2829C5.9835 6.4975 5.80953 6.67147 5.59493 6.67147ZM5.59493 5.01358H5.18046C4.96586 5.01358 4.79189 4.8396 4.79189 4.62501C4.79189 4.41041 4.96586 4.23644 5.18046 4.23644H5.59493C5.80953 4.23644 5.9835 4.41041 5.9835 4.62501C5.9835 4.8396 5.80953 5.01358 5.59493 5.01358ZM8.08177 9.98726H7.6673C7.45271 9.98726 7.27873 9.81329 7.27873 9.59869C7.27873 9.3841 7.45271 9.21012 7.6673 9.21012H8.08177C8.29637 9.21012 8.47034 9.3841 8.47034 9.59869C8.47034 9.81329 8.29637 9.98726 8.08177 9.98726ZM8.08177 8.32937H7.6673C7.45271 8.32937 7.27873 8.15539 7.27873 7.9408C7.27873 7.7262 7.45271 7.55223 7.6673 7.55223H8.08177C8.29637 7.55223 8.47034 7.7262 8.47034 7.9408C8.47034 8.15539 8.29637 8.32937 8.08177 8.32937ZM8.08177 6.67147H7.6673C7.45271 6.67147 7.27873 6.4975 7.27873 6.2829C7.27873 6.06831 7.45271 5.89433 7.6673 5.89433H8.08177C8.29637 5.89433 8.47034 6.06831 8.47034 6.2829C8.47034 6.4975 8.29637 6.67147 8.08177 6.67147ZM8.08177 5.01358H7.6673C7.45271 5.01358 7.27873 4.8396 7.27873 4.62501C7.27873 4.41041 7.45271 4.23644 7.6673 4.23644H8.08177C8.29637 4.23644 8.47034 4.41041 8.47034 4.62501C8.47034 4.8396 8.29637 5.01358 8.08177 5.01358ZM4.97322 2.57854H8.28901C8.5036 2.57854 8.67758 2.75252 8.67758 2.96711C8.67758 3.18171 8.5036 3.35568 8.28901 3.35568H4.97322C4.75863 3.35568 4.58465 3.18171 4.58465 2.96711C4.58465 2.75252 4.75863 2.57854 4.97322 2.57854Z" fill="#8396A1"/>
<path d="M5.56934 14.1579H7.69351V12.4741H5.56934V14.1579Z" fill="#8396A1"/>
</svg>
