<svg width="13" height="13" viewBox="0 0 13 13" fill="none" xmlns="http://www.w3.org/2000/svg">
<path d="M6.5 0C5.20752 0.0014516 3.96838 0.515532 3.05446 1.42946C2.14053 2.34338 1.62645 3.58252 1.625 4.875C1.625 8.30984 5.93355 12.6579 6.11697 12.8414C6.21923 12.9417 6.35676 12.9979 6.5 12.9979C6.64324 12.9979 6.78077 12.9417 6.88303 12.8414C7.06645 12.6579 11.375 8.30984 11.375 4.875C11.3735 3.58252 10.8595 2.34338 9.94554 1.42946C9.03162 0.515532 7.79249 0.0014516 6.5 0V0ZM6.5 8.125C5.85721 8.125 5.22886 7.93439 4.6944 7.57728C4.15994 7.22016 3.74338 6.71258 3.49739 6.11872C3.25141 5.52486 3.18705 4.8714 3.31245 4.24096C3.43785 3.61052 3.74738 3.03142 4.2019 2.5769C4.65642 2.12238 5.23552 1.81285 5.86596 1.68745C6.4964 1.56205 7.14986 1.62641 7.74372 1.87239C8.33758 2.11838 8.84516 2.53494 9.20228 3.0694C9.55939 3.60386 9.75 4.23221 9.75 4.875C9.75 5.73695 9.40759 6.5636 8.7981 7.1731C8.1886 7.78259 7.36195 8.125 6.5 8.125Z" fill="#8396A1"/>
<path d="M8.78751 4.09103L6.62084 3.00769C6.58323 2.98889 6.54176 2.9791 6.49971 2.9791C6.45766 2.9791 6.41619 2.98889 6.37858 3.00769L4.21191 4.09103L4.45417 4.57555L5.14554 4.22983V5.95829C5.14554 6.03012 5.17408 6.099 5.22487 6.1498C5.27566 6.20059 5.34455 6.22912 5.41638 6.22912H7.58304C7.65487 6.22912 7.72376 6.20059 7.77455 6.1498C7.82534 6.099 7.85388 6.03012 7.85388 5.95829V4.22983L8.54525 4.57555L8.78751 4.09103Z" fill="#8396A1"/>
</svg>
