<svg width="11" height="13" viewBox="0 0 11 13" fill="none" xmlns="http://www.w3.org/2000/svg">
<path d="M5.5 0C4.20752 0.0014516 2.96838 0.515532 2.05446 1.42946C1.14053 2.34338 0.626452 3.58252 0.625 4.875C0.625 8.30984 4.93355 12.6579 5.11697 12.8414C5.21923 12.9417 5.35676 12.9979 5.5 12.9979C5.64324 12.9979 5.78077 12.9417 5.88303 12.8414C6.06645 12.6579 10.375 8.30984 10.375 4.875C10.3735 3.58252 9.85947 2.34338 8.94554 1.42946C8.03162 0.515532 6.79249 0.0014516 5.5 0V0ZM5.5 8.125C4.85721 8.125 4.22886 7.93439 3.6944 7.57728C3.15994 7.22016 2.74338 6.71258 2.49739 6.11872C2.25141 5.52486 2.18705 4.8714 2.31245 4.24096C2.43785 3.61052 2.74738 3.03142 3.2019 2.5769C3.65642 2.12238 4.23552 1.81285 4.86596 1.68745C5.4964 1.56205 6.14986 1.62641 6.74372 1.87239C7.33758 2.11838 7.84516 2.53494 8.20228 3.0694C8.55939 3.60386 8.75 4.23221 8.75 4.875C8.75 5.73695 8.40759 6.5636 7.7981 7.1731C7.1886 7.78259 6.36195 8.125 5.5 8.125Z" fill="#8396A1"/>
</svg>
