<svg width="16" height="16" viewBox="0 0 16 16" fill="none" xmlns="http://www.w3.org/2000/svg">
<g clip-path="url(#clip0)">
<path d="M8.00071 0C3.58263 0 0.000976562 3.58192 0.000976562 7.99984C0.000976562 12.4178 3.58263 16 8.00071 16C12.4188 16 16.0009 12.418 16.0009 7.99984C16.0009 3.58171 12.4188 0 8.00071 0Z" fill="#D2DCE8"/>
<mask id="path-2-outside-1" maskUnits="userSpaceOnUse" x="2.82031" y="2" width="10" height="12" fill="black">
<rect fill="white" x="2.82031" y="2" width="10" height="12"/>
<path fill-rule="evenodd" clip-rule="evenodd" d="M9.63165 7.1114C9.16336 7.5797 8.59039 7.81705 7.92862 7.81705C7.267 7.81705 6.69403 7.57962 6.22566 7.11148C5.75745 6.64327 5.52002 6.0703 5.52002 5.40845C5.52002 4.74675 5.75745 4.17378 6.22566 3.70557C6.69388 3.23735 7.26677 3 7.92862 3C8.59032 3 9.16328 3.23735 9.63158 3.70549C10.0999 4.17386 10.3372 4.74683 10.3372 5.40845C10.3372 6.0703 10.0998 6.64319 9.63165 7.1114ZM7.92862 3.58601C7.42081 3.58601 6.99936 3.76065 6.64009 4.11992C6.28075 4.47926 6.10603 4.90079 6.10603 5.40845C6.10603 5.91626 6.28075 6.33778 6.64009 6.69705C6.99951 7.05632 7.42096 7.23103 7.92862 7.23103C8.43636 7.23103 8.85788 7.0564 9.21722 6.69705C9.57649 6.33771 9.75121 5.91626 9.75121 5.40845C9.75121 4.90079 9.57649 4.47926 9.21722 4.11992C8.85788 3.76065 8.43636 3.58601 7.92862 3.58601ZM12.0621 10.0576C12.1023 10.282 12.1296 10.4946 12.1431 10.6894C12.1565 10.8799 12.1633 11.0786 12.1634 11.2801C12.1634 11.8023 11.9974 12.225 11.6701 12.5364C11.3469 12.844 10.9193 12.9999 10.3994 12.9999H5.58431C5.06421 12.9999 4.63666 12.844 4.31348 12.5364C3.98625 12.2248 3.82031 11.8022 3.82031 11.2802C3.82031 11.0794 3.82703 10.8806 3.8403 10.6897C3.85381 10.4944 3.88104 10.2817 3.92133 10.0576C3.96191 9.83144 4.01418 9.61774 4.07666 9.42235C4.14136 9.22025 4.22925 9.02089 4.33781 8.82977C4.45042 8.63148 4.58287 8.45883 4.73149 8.31662C4.88705 8.16777 5.07741 8.04822 5.29729 7.96117C5.51648 7.87434 5.7594 7.83032 6.01941 7.83032C6.12149 7.83032 6.22022 7.87221 6.41072 7.99634C6.52982 8.07393 6.66715 8.16243 6.81889 8.2594C6.94966 8.34286 7.1272 8.42107 7.34616 8.49179C7.56017 8.56099 7.7773 8.59608 7.99153 8.59608C8.20592 8.59608 8.42305 8.56099 8.6369 8.49179C8.8561 8.42099 9.03356 8.34279 9.16455 8.25932C9.31775 8.16144 9.455 8.07294 9.57234 7.99641C9.763 7.87228 9.86173 7.8304 9.96381 7.8304C10.2237 7.8304 10.4667 7.87434 10.686 7.96109C10.906 8.04829 11.0963 8.16785 11.2517 8.31654C11.4003 8.45868 11.5328 8.63141 11.6455 8.82977C11.7542 9.02089 11.842 9.22032 11.9067 9.42227C11.9693 9.61766 12.0215 9.83144 12.0621 10.0576ZM10.3993 12.4139C10.769 12.4139 11.0525 12.3151 11.2661 12.1119C11.4755 11.9126 11.5773 11.6405 11.5773 11.2802C11.5773 11.0923 11.571 10.9073 11.5586 10.7304V10.7303C11.5465 10.5563 11.5218 10.3648 11.4853 10.161C11.4493 9.9603 11.4033 9.77185 11.3486 9.60095C11.2963 9.43745 11.2247 9.27533 11.136 9.11931C11.0514 8.97038 10.954 8.84274 10.8466 8.73997C10.7461 8.64384 10.6195 8.56503 10.4703 8.50598C10.3322 8.45135 10.1771 8.42145 10.0087 8.41695C9.98814 8.42786 9.9516 8.44876 9.8924 8.48729C9.77193 8.56587 9.63696 8.65285 9.47987 8.75325C9.30661 8.86372 9.08376 8.96329 8.81719 9.04942C8.54504 9.13739 8.26726 9.1821 7.99161 9.1821C7.71596 9.1821 7.43825 9.13739 7.16596 9.04935C6.89961 8.96336 6.67668 8.86372 6.50365 8.7534C6.35014 8.65536 6.21129 8.5658 6.09082 8.48729C6.03162 8.44868 5.99507 8.42786 5.97455 8.41695C5.80617 8.42145 5.65106 8.45135 5.51305 8.50598C5.36382 8.56503 5.23717 8.64377 5.13669 8.73997C5.02927 8.84282 4.93192 8.97046 4.84731 9.11923C4.75865 9.27533 4.68716 9.43738 4.63475 9.60103C4.58012 9.7717 4.5342 9.96022 4.49811 10.1611C4.46156 10.3645 4.43692 10.5559 4.42487 10.7302C4.41251 10.9078 4.40633 11.0928 4.40633 11.2802C4.40633 11.6404 4.5081 11.9126 4.71753 12.1119C4.931 12.3151 5.21451 12.4139 5.58431 12.4139H10.3993Z"/>
</mask>
<path fill-rule="evenodd" clip-rule="evenodd" d="M9.63165 7.1114C9.16336 7.5797 8.59039 7.81705 7.92862 7.81705C7.267 7.81705 6.69403 7.57962 6.22566 7.11148C5.75745 6.64327 5.52002 6.0703 5.52002 5.40845C5.52002 4.74675 5.75745 4.17378 6.22566 3.70557C6.69388 3.23735 7.26677 3 7.92862 3C8.59032 3 9.16328 3.23735 9.63158 3.70549C10.0999 4.17386 10.3372 4.74683 10.3372 5.40845C10.3372 6.0703 10.0998 6.64319 9.63165 7.1114ZM7.92862 3.58601C7.42081 3.58601 6.99936 3.76065 6.64009 4.11992C6.28075 4.47926 6.10603 4.90079 6.10603 5.40845C6.10603 5.91626 6.28075 6.33778 6.64009 6.69705C6.99951 7.05632 7.42096 7.23103 7.92862 7.23103C8.43636 7.23103 8.85788 7.0564 9.21722 6.69705C9.57649 6.33771 9.75121 5.91626 9.75121 5.40845C9.75121 4.90079 9.57649 4.47926 9.21722 4.11992C8.85788 3.76065 8.43636 3.58601 7.92862 3.58601ZM12.0621 10.0576C12.1023 10.282 12.1296 10.4946 12.1431 10.6894C12.1565 10.8799 12.1633 11.0786 12.1634 11.2801C12.1634 11.8023 11.9974 12.225 11.6701 12.5364C11.3469 12.844 10.9193 12.9999 10.3994 12.9999H5.58431C5.06421 12.9999 4.63666 12.844 4.31348 12.5364C3.98625 12.2248 3.82031 11.8022 3.82031 11.2802C3.82031 11.0794 3.82703 10.8806 3.8403 10.6897C3.85381 10.4944 3.88104 10.2817 3.92133 10.0576C3.96191 9.83144 4.01418 9.61774 4.07666 9.42235C4.14136 9.22025 4.22925 9.02089 4.33781 8.82977C4.45042 8.63148 4.58287 8.45883 4.73149 8.31662C4.88705 8.16777 5.07741 8.04822 5.29729 7.96117C5.51648 7.87434 5.7594 7.83032 6.01941 7.83032C6.12149 7.83032 6.22022 7.87221 6.41072 7.99634C6.52982 8.07393 6.66715 8.16243 6.81889 8.2594C6.94966 8.34286 7.1272 8.42107 7.34616 8.49179C7.56017 8.56099 7.7773 8.59608 7.99153 8.59608C8.20592 8.59608 8.42305 8.56099 8.6369 8.49179C8.8561 8.42099 9.03356 8.34279 9.16455 8.25932C9.31775 8.16144 9.455 8.07294 9.57234 7.99641C9.763 7.87228 9.86173 7.8304 9.96381 7.8304C10.2237 7.8304 10.4667 7.87434 10.686 7.96109C10.906 8.04829 11.0963 8.16785 11.2517 8.31654C11.4003 8.45868 11.5328 8.63141 11.6455 8.82977C11.7542 9.02089 11.842 9.22032 11.9067 9.42227C11.9693 9.61766 12.0215 9.83144 12.0621 10.0576ZM10.3993 12.4139C10.769 12.4139 11.0525 12.3151 11.2661 12.1119C11.4755 11.9126 11.5773 11.6405 11.5773 11.2802C11.5773 11.0923 11.571 10.9073 11.5586 10.7304V10.7303C11.5465 10.5563 11.5218 10.3648 11.4853 10.161C11.4493 9.9603 11.4033 9.77185 11.3486 9.60095C11.2963 9.43745 11.2247 9.27533 11.136 9.11931C11.0514 8.97038 10.954 8.84274 10.8466 8.73997C10.7461 8.64384 10.6195 8.56503 10.4703 8.50598C10.3322 8.45135 10.1771 8.42145 10.0087 8.41695C9.98814 8.42786 9.9516 8.44876 9.8924 8.48729C9.77193 8.56587 9.63696 8.65285 9.47987 8.75325C9.30661 8.86372 9.08376 8.96329 8.81719 9.04942C8.54504 9.13739 8.26726 9.1821 7.99161 9.1821C7.71596 9.1821 7.43825 9.13739 7.16596 9.04935C6.89961 8.96336 6.67668 8.86372 6.50365 8.7534C6.35014 8.65536 6.21129 8.5658 6.09082 8.48729C6.03162 8.44868 5.99507 8.42786 5.97455 8.41695C5.80617 8.42145 5.65106 8.45135 5.51305 8.50598C5.36382 8.56503 5.23717 8.64377 5.13669 8.73997C5.02927 8.84282 4.93192 8.97046 4.84731 9.11923C4.75865 9.27533 4.68716 9.43738 4.63475 9.60103C4.58012 9.7717 4.5342 9.96022 4.49811 10.1611C4.46156 10.3645 4.43692 10.5559 4.42487 10.7302C4.41251 10.9078 4.40633 11.0928 4.40633 11.2802C4.40633 11.6404 4.5081 11.9126 4.71753 12.1119C4.931 12.3151 5.21451 12.4139 5.58431 12.4139H10.3993Z" fill="white"/>
<path d="M9.63165 7.1114L9.77307 7.25283L9.77309 7.25281L9.63165 7.1114ZM6.22566 7.11148L6.08424 7.2529L6.08428 7.25294L6.22566 7.11148ZM6.22566 3.70557L6.08424 3.56415L6.22566 3.70557ZM9.63158 3.70549L9.77301 3.56408L9.77298 3.56405L9.63158 3.70549ZM6.64009 4.11992L6.49867 3.9785L6.64009 4.11992ZM6.64009 6.69705L6.49868 6.83849L6.4987 6.8385L6.64009 6.69705ZM9.21722 6.69705L9.35865 6.83847L9.35866 6.83846L9.21722 6.69705ZM9.21722 4.11992L9.35866 3.97851L9.35863 3.97848L9.21722 4.11992ZM12.1431 10.6894L11.9436 10.7033L11.9436 10.7034L12.1431 10.6894ZM12.0621 10.0576L12.259 10.0223L12.259 10.0222L12.0621 10.0576ZM12.1634 11.2801H12.3634V11.28L12.1634 11.2801ZM11.6701 12.5364L11.808 12.6813L11.808 12.6813L11.6701 12.5364ZM4.31348 12.5364L4.17554 12.6813L4.1756 12.6813L4.31348 12.5364ZM3.8403 10.6897L4.03982 10.7035L4.03983 10.7035L3.8403 10.6897ZM3.92133 10.0576L4.11817 10.0929L4.11818 10.0929L3.92133 10.0576ZM4.07666 9.42235L3.88618 9.36137L3.88616 9.36143L4.07666 9.42235ZM4.33781 8.82977L4.51171 8.92856L4.51173 8.92854L4.33781 8.82977ZM4.73149 8.31662L4.59322 8.17211L4.59322 8.17212L4.73149 8.31662ZM5.29729 7.96117L5.37091 8.14712L5.37094 8.14711L5.29729 7.96117ZM6.41072 7.99634L6.30154 8.16391L6.30155 8.16391L6.41072 7.99634ZM6.81889 8.2594L6.7112 8.42793L6.71129 8.42799L6.81889 8.2594ZM7.34616 8.49179L7.4077 8.30149L7.40763 8.30147L7.34616 8.49179ZM8.6369 8.49179L8.57543 8.30147L8.57533 8.3015L8.6369 8.49179ZM9.16455 8.25932L9.27202 8.42799L9.27224 8.42786L9.16455 8.25932ZM9.57234 7.99641L9.46322 7.82881L9.46309 7.82889L9.57234 7.99641ZM10.686 7.96109L10.7597 7.77516L10.7596 7.77512L10.686 7.96109ZM11.2517 8.31654L11.1135 8.46105L11.1135 8.46108L11.2517 8.31654ZM11.6455 8.82977L11.4716 8.92856L11.4716 8.92866L11.6455 8.82977ZM11.9067 9.42227L12.0972 9.36128L12.0972 9.36125L11.9067 9.42227ZM11.2661 12.1119L11.1282 11.967L11.1282 11.967L11.2661 12.1119ZM11.5773 11.2802L11.7773 11.2802V11.2801L11.5773 11.2802ZM11.5586 10.7304H11.3581L11.3591 10.7444L11.5586 10.7304ZM11.5586 10.7303H11.7591L11.7581 10.7164L11.5586 10.7303ZM11.4853 10.161L11.6822 10.1258L11.6822 10.1257L11.4853 10.161ZM11.3486 9.60095L11.5391 9.53998L11.5391 9.53998L11.3486 9.60095ZM11.136 9.11931L10.9621 9.2181L10.9621 9.21818L11.136 9.11931ZM10.8466 8.73997L10.7083 8.88449L10.7083 8.88449L10.8466 8.73997ZM10.4703 8.50598L10.5439 8.32002L10.5439 8.32L10.4703 8.50598ZM10.0087 8.41695L10.014 8.21702L9.96133 8.21561L9.91479 8.24035L10.0087 8.41695ZM9.8924 8.48729L9.78331 8.31966L9.78313 8.31978L9.8924 8.48729ZM9.47987 8.75325L9.5874 8.92189L9.58758 8.92177L9.47987 8.75325ZM8.81719 9.04942L8.75569 8.85911L8.75567 8.85912L8.81719 9.04942ZM7.16596 9.04935L7.22749 8.85905L7.2274 8.85902L7.16596 9.04935ZM6.50365 8.7534L6.396 8.92196L6.39613 8.92204L6.50365 8.7534ZM6.09082 8.48729L5.98158 8.65482L5.98163 8.65485L6.09082 8.48729ZM5.97455 8.41695L6.06843 8.24035L6.02189 8.21561L5.9692 8.21702L5.97455 8.41695ZM5.51305 8.50598L5.58664 8.69195L5.58665 8.69195L5.51305 8.50598ZM5.13669 8.73997L5.275 8.88444L5.27501 8.88443L5.13669 8.73997ZM4.84731 9.11923L4.67345 9.02036L4.6734 9.02046L4.84731 9.11923ZM4.63475 9.60103L4.44428 9.54002L4.44427 9.54006L4.63475 9.60103ZM4.49811 10.1611L4.69496 10.1965L4.69496 10.1965L4.49811 10.1611ZM4.42487 10.7302L4.62438 10.7441L4.62439 10.744L4.42487 10.7302ZM4.71753 12.1119L4.57963 12.2568L4.57965 12.2568L4.71753 12.1119ZM7.92862 8.01705C8.64346 8.01705 9.26729 7.75861 9.77307 7.25283L9.49023 6.96998C9.05943 7.40079 8.53732 7.61705 7.92862 7.61705V8.01705ZM6.08428 7.25294C6.5901 7.75852 7.21391 8.01705 7.92862 8.01705V7.61705C7.32009 7.61705 6.79796 7.40072 6.36705 6.97003L6.08428 7.25294ZM5.32002 5.40845C5.32002 6.12338 5.57854 6.7472 6.08424 7.2529L6.36708 6.97006C5.93635 6.53933 5.72002 6.01722 5.72002 5.40845H5.32002ZM6.08424 3.56415C5.57855 4.06984 5.32002 4.69367 5.32002 5.40845H5.72002C5.72002 4.79983 5.93635 4.27773 6.36708 3.84699L6.08424 3.56415ZM7.92862 2.8C7.2137 2.8 6.58995 3.05844 6.08424 3.56415L6.36708 3.84699C6.79781 3.41626 7.31984 3.2 7.92862 3.2V2.8ZM9.77298 3.56405C9.2672 3.05844 8.64339 2.8 7.92862 2.8V3.2C8.53725 3.2 9.05937 3.41626 9.49018 3.84693L9.77298 3.56405ZM10.5372 5.40845C10.5372 4.69375 10.2788 4.06993 9.77301 3.56408L9.49014 3.8469C9.92097 4.27779 10.1372 4.79991 10.1372 5.40845H10.5372ZM9.77309 7.25281C10.2787 6.74712 10.5372 6.12338 10.5372 5.40845H10.1372C10.1372 6.01722 9.92089 6.53925 9.49022 6.97L9.77309 7.25281ZM6.78151 4.26134C7.1033 3.93955 7.47389 3.78601 7.92862 3.78601V3.38601C7.36773 3.38601 6.89542 3.58175 6.49867 3.9785L6.78151 4.26134ZM6.30603 5.40845C6.30603 4.95389 6.45963 4.58322 6.78151 4.26134L6.49867 3.9785C6.10186 4.3753 5.90603 4.84768 5.90603 5.40845H6.30603ZM6.7815 6.55562C6.45964 6.23382 6.30603 5.86317 6.30603 5.40845H5.90603C5.90603 5.96935 6.10185 6.44174 6.49868 6.83849L6.7815 6.55562ZM7.92862 7.03103C7.47408 7.03103 7.10346 6.87744 6.78148 6.5556L6.4987 6.8385C6.89556 7.2352 7.36784 7.43103 7.92862 7.43103V7.03103ZM9.0758 6.55563C8.75394 6.87749 8.38328 7.03103 7.92862 7.03103V7.43103C8.48944 7.43103 8.96182 7.2353 9.35865 6.83847L9.0758 6.55563ZM9.55121 5.40845C9.55121 5.86316 9.39761 6.23376 9.07579 6.55565L9.35866 6.83846C9.75538 6.44166 9.95121 5.96936 9.95121 5.40845H9.55121ZM9.07579 4.26133C9.39761 4.58321 9.55121 4.95389 9.55121 5.40845H9.95121C9.95121 4.84768 9.75538 4.37531 9.35866 3.97851L9.07579 4.26133ZM7.92862 3.78601C8.38328 3.78601 8.75395 3.93956 9.07582 4.26136L9.35863 3.97848C8.96181 3.58175 8.48943 3.38601 7.92862 3.38601V3.78601ZM12.3427 10.6756C12.3286 10.4724 12.3003 10.2527 12.259 10.0223L11.8653 10.0928C11.9044 10.3114 11.9307 10.5167 11.9436 10.7033L12.3427 10.6756ZM12.3634 11.28C12.3633 11.0742 12.3563 10.8708 12.3427 10.6755L11.9436 10.7034C11.9566 10.889 11.9633 11.0831 11.9634 11.2802L12.3634 11.28ZM11.808 12.6813C12.1812 12.3262 12.3634 11.8477 12.3634 11.2801H11.9634C11.9634 11.7568 11.8136 12.1238 11.5323 12.3915L11.808 12.6813ZM10.3994 13.1999C10.9615 13.1999 11.4414 13.0301 11.808 12.6813L11.5323 12.3915C11.2523 12.6579 10.8771 12.7999 10.3994 12.7999V13.1999ZM5.58431 13.1999H10.3994V12.7999H5.58431V13.1999ZM4.1756 12.6813C4.54208 13.0301 5.022 13.1999 5.58431 13.1999V12.7999C5.10642 12.7999 4.73123 12.6579 4.45135 12.3916L4.1756 12.6813ZM3.62031 11.2802C3.62031 11.8477 3.80245 12.3259 4.17554 12.6813L4.45141 12.3916C4.17005 12.1236 4.02031 11.7567 4.02031 11.2802H3.62031ZM3.64078 10.6758C3.62717 10.8716 3.62031 11.075 3.62031 11.2802H4.02031C4.02031 11.0838 4.02688 10.8897 4.03982 10.7035L3.64078 10.6758ZM3.72448 10.0222C3.68311 10.2524 3.65485 10.4723 3.64078 10.6759L4.03983 10.7035C4.05276 10.5164 4.07897 10.3111 4.11817 10.0929L3.72448 10.0222ZM3.88616 9.36143C3.8207 9.56612 3.76643 9.78845 3.72447 10.0222L4.11818 10.0929C4.15739 9.87442 4.20765 9.66936 4.26716 9.48327L3.88616 9.36143ZM4.16391 8.73099C4.04879 8.93365 3.95524 9.14564 3.88618 9.36137L4.26714 9.48332C4.32747 9.29485 4.40971 9.10813 4.51171 8.92856L4.16391 8.73099ZM4.59322 8.17212C4.42913 8.32914 4.28507 8.51764 4.1639 8.73101L4.51173 8.92854C4.61577 8.74533 4.73662 8.58853 4.86976 8.46112L4.59322 8.17212ZM5.22367 7.77521C4.98216 7.87082 4.76923 8.0037 4.59322 8.17211L4.86976 8.46113C5.00488 8.33184 5.17266 8.22561 5.37091 8.14712L5.22367 7.77521ZM6.01941 7.63032C5.73677 7.63032 5.46857 7.6782 5.22363 7.77522L5.37094 8.14711C5.56439 8.07048 5.78203 8.03032 6.01941 8.03032V7.63032ZM6.51991 7.82877C6.32804 7.70376 6.18557 7.63032 6.01941 7.63032V8.03032C6.05741 8.03032 6.11239 8.04066 6.30154 8.16391L6.51991 7.82877ZM6.92659 8.09087C6.7752 7.99413 6.63838 7.90596 6.5199 7.82876L6.30155 8.16391C6.42125 8.2419 6.55909 8.33073 6.7112 8.42793L6.92659 8.09087ZM7.40763 8.30147C7.19784 8.23371 7.03773 8.16181 6.9265 8.09081L6.71129 8.42799C6.86159 8.52392 7.05656 8.60842 7.28469 8.68211L7.40763 8.30147ZM7.99153 8.39608C7.79922 8.39608 7.60282 8.36459 7.4077 8.30149L7.28463 8.68209C7.51751 8.75739 7.75538 8.79608 7.99153 8.79608V8.39608ZM8.57533 8.3015C8.38039 8.36458 8.18401 8.39608 7.99153 8.39608V8.79608C8.22782 8.79608 8.46571 8.7574 8.69848 8.68208L8.57533 8.3015ZM9.05708 8.09065C8.94552 8.16173 8.78541 8.23365 8.57543 8.30147L8.69838 8.68211C8.92679 8.60833 9.12159 8.52384 9.27202 8.42799L9.05708 8.09065ZM9.46309 7.82889C9.34639 7.905 9.20967 7.99315 9.05687 8.09079L9.27224 8.42786C9.42583 8.32972 9.56362 8.24088 9.68159 8.16394L9.46309 7.82889ZM9.96381 7.6304C9.79767 7.6304 9.65519 7.70382 9.46322 7.82881L9.68147 8.16402C9.87081 8.04075 9.92579 8.0304 9.96381 8.0304V7.6304ZM10.7596 7.77512C10.5146 7.67819 10.2463 7.6304 9.96381 7.6304V8.0304C10.2012 8.0304 10.4189 8.0705 10.6124 8.14707L10.7596 7.77512ZM11.39 8.17204C11.2141 8.00378 11.0013 7.87092 10.7597 7.77516L10.6123 8.14702C10.8108 8.22567 10.9785 8.33191 11.1135 8.46105L11.39 8.17204ZM11.8194 8.73098C11.6982 8.51759 11.5541 8.32899 11.39 8.172L11.1135 8.46108C11.2466 8.58837 11.3674 8.74522 11.4716 8.92856L11.8194 8.73098ZM12.0972 9.36125C12.0281 9.14575 11.9347 8.93366 11.8193 8.73088L11.4716 8.92866C11.5737 9.10812 11.6559 9.29489 11.7162 9.48329L12.0972 9.36125ZM12.259 10.0222C12.217 9.78846 12.1627 9.56603 12.0972 9.36128L11.7162 9.48326C11.7758 9.66929 11.826 9.87441 11.8653 10.0929L12.259 10.0222ZM11.1282 11.967C10.9607 12.1264 10.7313 12.2139 10.3993 12.2139V12.6139C10.8067 12.6139 11.1444 12.5038 11.404 12.2567L11.1282 11.967ZM11.3773 11.2801C11.3773 11.6001 11.2886 11.8143 11.1282 11.967L11.4039 12.2568C11.6624 12.0108 11.7773 11.6809 11.7773 11.2802L11.3773 11.2801ZM11.3591 10.7444C11.3712 10.9164 11.3773 11.0967 11.3773 11.2803L11.7773 11.2801C11.7773 11.0879 11.7709 10.8983 11.7581 10.7164L11.3591 10.7444ZM11.3586 10.7303V10.7304H11.7586V10.7303H11.3586ZM11.2885 10.1963C11.3239 10.3943 11.3476 10.5786 11.3591 10.7441L11.7581 10.7164C11.7455 10.534 11.7197 10.3353 11.6822 10.1258L11.2885 10.1963ZM11.1581 9.66192C11.2098 9.82338 11.2538 10.0032 11.2885 10.1963L11.6822 10.1257C11.6448 9.91744 11.5968 9.72032 11.5391 9.53998L11.1581 9.66192ZM10.9621 9.21818C11.0443 9.36271 11.1102 9.51218 11.1581 9.66193L11.5391 9.53998C11.4824 9.36273 11.4051 9.18795 11.3098 9.02044L10.9621 9.21818ZM10.7083 8.88449C10.7998 8.97196 10.8856 9.08354 10.9621 9.2181L11.3099 9.02051C11.2171 8.85723 11.1083 8.71353 10.9849 8.59546L10.7083 8.88449ZM10.3967 8.69194C10.5254 8.7429 10.6291 8.8087 10.7083 8.88449L10.9849 8.59546C10.8631 8.47899 10.7135 8.38717 10.5439 8.32002L10.3967 8.69194ZM10.0033 8.61688C10.1515 8.62084 10.2831 8.64702 10.3968 8.69196L10.5439 8.32C10.3813 8.25569 10.2027 8.22206 10.014 8.21702L10.0033 8.61688ZM10.0015 8.65492C10.0571 8.61875 10.0884 8.60104 10.1025 8.59354L9.91479 8.24035C9.88785 8.25467 9.84613 8.27877 9.78331 8.31966L10.0015 8.65492ZM9.58758 8.92177C9.74501 8.82115 9.88053 8.73382 10.0017 8.6548L9.78313 8.31978C9.66333 8.39792 9.52891 8.48455 9.37217 8.58473L9.58758 8.92177ZM8.87868 9.23973C9.15599 9.15013 9.39563 9.04416 9.5874 8.92189L9.37235 8.58461C9.21759 8.68329 9.01152 8.77645 8.75569 8.85911L8.87868 9.23973ZM7.99161 9.3821C8.28897 9.3821 8.58749 9.33386 8.8787 9.23973L8.75567 8.85912C8.5026 8.94092 8.24555 8.9821 7.99161 8.9821V9.3821ZM7.10442 9.23965C7.39579 9.33386 7.69424 9.3821 7.99161 9.3821V8.9821C7.73768 8.9821 7.48071 8.94092 7.22749 8.85905L7.10442 9.23965ZM6.39613 8.92204C6.58765 9.04415 6.82737 9.15021 7.10451 9.23967L7.2274 8.85902C6.97186 8.77652 6.76571 8.68329 6.61117 8.58476L6.39613 8.92204ZM5.98163 8.65485C6.10267 8.73373 6.24205 8.82364 6.396 8.92196L6.6113 8.58485C6.45824 8.48709 6.31991 8.39786 6.20002 8.31973L5.98163 8.65485ZM5.88067 8.59354C5.89489 8.6011 5.92625 8.61874 5.98158 8.65482L6.20006 8.31976C6.13698 8.27863 6.09525 8.25461 6.06843 8.24035L5.88067 8.59354ZM5.58665 8.69195C5.70016 8.64702 5.83177 8.62083 5.97989 8.61688L5.9692 8.21702C5.78057 8.22206 5.60196 8.25569 5.43944 8.32002L5.58665 8.69195ZM5.27501 8.88443C5.35415 8.80866 5.4578 8.74293 5.58664 8.69195L5.43946 8.32001C5.26983 8.38713 5.12019 8.47888 4.99837 8.59552L5.27501 8.88443ZM5.02116 9.2181C5.09762 9.08365 5.18352 8.97202 5.275 8.88444L4.99838 8.59551C4.87501 8.71362 4.76621 8.85727 4.67345 9.02036L5.02116 9.2181ZM4.82522 9.66203C4.87325 9.51208 4.93907 9.36265 5.02122 9.218L4.6734 9.02046C4.57824 9.18801 4.50108 9.36268 4.44428 9.54002L4.82522 9.66203ZM4.69496 10.1965C4.72971 10.003 4.77365 9.82316 4.82523 9.662L4.44427 9.54006C4.3866 9.72023 4.33868 9.91743 4.30126 10.1257L4.69496 10.1965ZM4.62439 10.744C4.63586 10.5781 4.65947 10.394 4.69496 10.1965L4.30126 10.1257C4.26366 10.335 4.23798 10.5337 4.22534 10.7164L4.62439 10.744ZM4.60633 11.2802C4.60633 11.0971 4.61237 10.9168 4.62438 10.7441L4.22535 10.7163C4.21265 10.8988 4.20633 11.0885 4.20633 11.2802H4.60633ZM4.85542 11.9671C4.69499 11.8144 4.60633 11.6001 4.60633 11.2802H4.20633C4.20633 11.6808 4.32121 12.0108 4.57963 12.2568L4.85542 11.9671ZM5.58431 12.2139C5.25217 12.2139 5.02285 12.1264 4.85541 11.9671L4.57965 12.2568C4.83915 12.5038 5.17685 12.6139 5.58431 12.6139V12.2139ZM10.3993 12.2139H5.58431V12.6139H10.3993V12.2139Z" fill="white" mask="url(#path-2-outside-1)"/>
</g>
<defs>
<clipPath id="clip0">
<rect width="16" height="16" fill="white"/>
</clipPath>
</defs>
</svg>
