<svg width="13" height="13" viewBox="0 0 13 13" fill="none" xmlns="http://www.w3.org/2000/svg">
<path d="M0.644187 5.55324L6.50003 0.868564L12.3559 5.55324C12.4261 5.60943 12.5101 5.63672 12.5935 5.63672C12.7052 5.63672 12.816 5.58777 12.8912 5.49375C13.0226 5.32949 12.996 5.08983 12.8317 4.95844L6.73794 0.0834348C6.59882 -0.0278523 6.40121 -0.0278523 6.26212 0.0834348L0.168367 4.95844C0.00408947 5.08983 -0.0225453 5.32949 0.108877 5.49375C0.240273 5.658 0.479961 5.68471 0.644187 5.55324Z" fill="#8396A1"/>
<path d="M0 12.6191C0 12.8294 0.170523 13 0.380859 13H12.6191C12.8295 13 13 12.8294 13 12.6191V11.8066H0V12.6191Z" fill="#8396A1"/>
<path d="M9.54688 0.761688H9.67383V1.45668L11.1973 2.67543V0.761688H11.3242C11.5346 0.761688 11.7051 0.591165 11.7051 0.380829C11.7051 0.170493 11.5346 -3.05176e-05 11.3242 -3.05176e-05H9.54688C9.33654 -3.05176e-05 9.16602 0.170493 9.16602 0.380829C9.16602 0.591165 9.33654 0.761688 9.54688 0.761688Z" fill="#8396A1"/>
<path d="M6.88086 7.61716H8.42969V11.0449H6.88086V7.61716Z" fill="#8396A1"/>
<path d="M4.57031 7.61716H6.11914V11.0449H4.57031V7.61716Z" fill="#8396A1"/>
<path d="M12.6191 9.52145H9.57227C9.36193 9.52145 9.19141 9.69198 9.19141 9.90231V11.0449H9.95312V10.2832H10.7148V11.0449H11.4766V10.2832H12.2383V11.0449H13V9.90231C13 9.69198 12.8295 9.52145 12.6191 9.52145Z" fill="#8396A1"/>
<path d="M0.761719 10.2832H1.52344V11.0449H2.28516V10.2832H3.04688V11.0449H3.80859V9.90231C3.80859 9.69198 3.63807 9.52145 3.42773 9.52145H0.380859C0.170523 9.52145 0 9.69198 0 9.90231V11.0449H0.761719V10.2832Z" fill="#8396A1"/>
<path d="M9.57227 8.75978H11.4766V5.82534L6.5 1.84409L1.52344 5.82534V8.75978H3.42773C3.56126 8.75978 3.68938 8.78301 3.80859 8.82529V7.6172C3.80859 7.19653 4.14964 6.85548 4.57031 6.85548H8.81055C9.02088 6.85548 9.19141 7.02601 9.19141 7.23634V8.82562C9.31064 8.78329 9.43869 8.75978 9.57227 8.75978Z" fill="#8396A1"/>
</svg>
