<svg width="14" height="14" viewBox="0 0 14 14" fill="none" xmlns="http://www.w3.org/2000/svg">
<path d="M3.59813 12.8735C3.59682 12.8761 3.59506 12.8779 3.59375 12.8805C3.60427 12.8831 3.61434 12.8866 3.62486 12.8888L3.59813 12.8735Z" fill="#E9EFF4"/>
<path fill-rule="evenodd" clip-rule="evenodd" d="M13.998 7.12372C13.932 10.9324 10.824 13.9996 6.99953 13.9996C3.1338 13.9996 0 10.8658 0 7.00008C0 6.84296 0.00517687 6.68705 0.0153693 6.53251C0.0534678 6.52768 0.0880565 6.50578 0.100757 6.47074C0.118282 6.51981 0.136136 6.56888 0.153989 6.61795C0.171843 6.66702 0.189697 6.7161 0.207222 6.76517C0.343042 6.76692 0.408323 6.92508 0.457393 7.0517C0.539761 7.25937 0.6712 7.44426 0.837688 7.59323C0.861347 7.7641 0.861347 7.93497 0.806143 8.09488L0.800872 8.10937C0.768373 8.19843 0.730299 8.30276 0.793437 8.37047C0.79934 8.37637 0.80579 8.38173 0.812167 8.38702L0.812183 8.38703C0.824733 8.39745 0.837 8.40764 0.84426 8.42129C0.868308 8.46717 0.831112 8.50962 0.793737 8.55228L0.793731 8.55229C0.779358 8.56869 0.764958 8.58513 0.754006 8.6018C0.667626 8.73021 0.789985 8.87526 0.896133 9.00108L0.896164 9.00112L0.896255 9.00123C0.910665 9.01831 0.924774 9.03504 0.93802 9.05132C1.0465 9.18211 1.10515 9.34288 1.1641 9.50446C1.21277 9.63786 1.26163 9.77181 1.33891 9.8899C1.39981 9.98081 1.47626 10.0596 1.55271 10.1383C1.62917 10.2171 1.70562 10.2958 1.76652 10.3867C1.88077 10.5552 1.93484 10.7548 1.98868 10.9536C2.0036 11.0087 2.0185 11.0637 2.03465 11.118C2.24583 11.8273 2.7085 12.4586 3.32144 12.8731C3.40731 12.9314 3.54795 12.9695 3.59395 12.8823C3.32932 12.8192 3.10456 12.6072 3.0314 12.3443C3.00774 12.2553 3.0016 12.1572 3.0441 12.0766C3.08879 11.9955 3.19482 11.9452 3.27543 11.9877C3.32582 11.9097 3.26755 11.7958 3.18343 11.769C3.2544 11.7769 3.32713 11.7848 3.39855 11.7909L3.4816 11.4892L3.5646 11.1876L3.56654 11.1811C3.57863 11.14 3.59137 11.0968 3.61673 11.0623C3.66953 10.9879 3.75862 10.9643 3.84928 10.9403L3.84929 10.9403C3.90535 10.9254 3.962 10.9104 4.01105 10.8831C4.20886 10.7713 4.22375 10.5115 4.23733 10.2749L4.23733 10.2749L4.23733 10.2749L4.23733 10.2749L4.23733 10.2748L4.23733 10.2748C4.23918 10.2426 4.241 10.2108 4.24326 10.1799C4.2621 9.91049 4.34753 9.64454 4.48817 9.41496L4.49647 9.40135C4.52577 9.35341 4.55623 9.30358 4.55783 9.24716C4.56326 9.11769 4.43246 9.04855 4.30311 8.98018C4.17114 8.91041 4.04067 8.84145 4.05793 8.71002C3.9141 8.6983 3.76941 8.68802 3.62526 8.67778L3.62496 8.67776L3.52429 8.67058C3.47672 8.47565 3.18379 8.4071 3.05055 8.55034C3.08031 8.50073 3.02195 8.41883 2.95604 8.42041C2.88462 8.42041 2.82767 8.47737 2.7786 8.53126C2.72471 8.44101 2.84782 8.31439 2.93983 8.36477C2.97619 8.17331 3.00116 7.94855 2.86666 7.80922C2.77941 7.71947 2.65356 7.69486 2.52703 7.67012C2.41019 7.64727 2.29278 7.62431 2.20465 7.54985C2.15497 7.5093 2.1196 7.45542 2.08404 7.40121C2.06158 7.36699 2.03903 7.33264 2.01275 7.30143C1.87824 7.14327 1.66444 7.08149 1.46334 7.02629C1.39849 7.00876 1.32883 6.99168 1.2653 7.01534C1.22031 7.03161 1.18624 7.06624 1.15209 7.10095L1.15208 7.10096L1.15208 7.10097L1.15207 7.10098C1.13934 7.11392 1.1266 7.12687 1.11327 7.13889C1.01995 7.22126 0.891578 7.26113 0.768026 7.24535L0.770047 7.25479C0.774125 7.27389 0.778154 7.29276 0.783799 7.31195C0.715889 7.2011 0.672952 7.07448 0.668133 6.9448C0.667418 6.92907 0.66705 6.91296 0.666679 6.89669L0.666679 6.89669L0.666679 6.89668L0.666679 6.89668L0.666679 6.89668L0.666679 6.89667L0.666678 6.89667C0.664548 6.80329 0.662302 6.70488 0.593651 6.64556C0.584358 6.63795 0.574161 6.63135 0.564018 6.62477L0.564013 6.62477C0.542595 6.61089 0.521423 6.59718 0.50953 6.57458C0.495072 6.54785 0.498139 6.51631 0.502959 6.48608C0.517945 6.36945 0.533173 6.25378 0.548464 6.13765L0.564296 6.01728C0.475795 5.95244 0.380721 6.09527 0.361881 6.20436C0.344356 6.31346 0.252787 6.4576 0.162533 6.39451C0.211603 5.99537 0.33165 5.60588 0.513474 5.24793C0.518293 5.30182 0.580069 5.33993 0.630892 5.32241C0.58927 5.22252 0.69223 5.11956 0.79519 5.08801C0.830377 5.07723 0.867252 5.07029 0.904084 5.06335C0.975028 5.05 1.04581 5.03667 1.10407 4.996C1.16814 4.95199 1.20638 4.88288 1.24483 4.81341C1.27947 4.75082 1.31427 4.68794 1.36826 4.64287C1.38526 4.62878 1.40441 4.61569 1.42357 4.60258C1.47947 4.56434 1.53554 4.52599 1.53913 4.46236C1.53991 4.43511 1.53023 4.40955 1.52058 4.38404C1.51393 4.36649 1.5073 4.34896 1.50408 4.33093C1.48656 4.2376 1.5641 4.15042 1.64779 4.10441C1.68289 4.08623 1.71991 4.07205 1.75683 4.0579L1.75683 4.0579C1.80976 4.03762 1.86245 4.01743 1.90891 3.98568C2.0111 3.91859 2.07006 3.80934 2.12886 3.70037L2.12886 3.70037C2.14494 3.67059 2.16099 3.64083 2.17792 3.61196C2.25547 3.47877 2.38209 3.34558 2.53719 3.35828C2.53806 3.38676 2.53927 3.41524 2.54047 3.44372L2.54048 3.44378C2.54168 3.47224 2.54288 3.50069 2.54376 3.52915C2.73215 3.54361 2.92362 3.42794 2.9981 3.25532C2.92668 3.21238 2.84256 3.1953 2.76195 3.20318C2.7729 3.14447 2.76808 3.08445 2.74793 3.03056C2.68265 3.06824 2.61649 3.10636 2.54989 3.14447C2.53105 3.15543 2.55778 3.02268 2.56391 3.01304C2.60151 2.94666 2.6764 2.93841 2.74446 2.93091L2.74447 2.93091L2.74448 2.93091C2.75413 2.92985 2.76365 2.9288 2.7729 2.9276C2.83608 2.91942 2.89892 2.93753 2.96066 2.95533C3.01794 2.97184 3.07428 2.98808 3.1291 2.98281C3.13392 2.98281 3.13874 2.98105 3.14312 2.9793L3.10193 2.89387C3.28069 2.83691 3.44543 2.71818 3.59877 2.60251C3.65923 2.55826 3.72583 2.5013 3.72714 2.42682C3.63689 2.46187 3.52298 2.41893 3.47697 2.3335C3.43141 2.24806 3.45813 2.12933 3.53743 2.07369C3.46777 2.09121 3.39767 2.10907 3.32757 2.12692C3.25747 2.14478 3.18737 2.16263 3.11771 2.18015C3.11561 2.15804 3.11326 2.13592 3.11092 2.11384L3.11092 2.11384C3.10788 2.08518 3.10485 2.05658 3.10237 2.02812C3.02307 1.93787 2.87893 2.03908 2.81408 2.14204C2.74924 2.24325 2.64146 2.3668 2.53543 2.31159C2.54953 2.45501 2.43538 2.5496 2.31748 2.64731C2.22287 2.72571 2.12584 2.80611 2.09073 2.91533L2.08576 2.9316C2.06763 2.99148 2.04535 3.06509 1.98602 3.05948C1.95579 2.96134 1.97332 2.84874 2.03203 2.76506C1.96236 2.78083 1.88613 2.79485 1.81822 2.77119C1.74987 2.74753 1.69598 2.66692 1.72796 2.60207C1.74505 2.56396 1.78492 2.54161 1.8226 2.52277C2.13761 2.35628 2.43379 2.15518 2.70411 1.92516C2.72339 1.91114 2.74223 1.89362 2.75012 1.87127C2.77071 1.81738 2.71682 1.75911 2.65986 1.75429C2.60115 1.74816 2.54726 1.77839 2.49995 1.80994C2.39557 1.87867 2.29951 1.95904 2.20353 2.03935L2.20352 2.03935C2.08719 2.13669 1.97096 2.23394 1.84013 2.31028L1.83544 2.31294C1.81471 2.32475 1.79431 2.33636 1.77353 2.34533C1.29744 2.87883 0.901852 3.48567 0.606013 4.14689C1.69814 1.70333 4.14998 0.000549316 6.99953 0.000549316C10.1688 0.000549316 12.8461 2.10682 13.7079 4.99591C13.396 3.95199 12.847 3.01061 12.1234 2.23361C12.098 2.23668 12.0713 2.23536 12.0441 2.22879C11.9583 2.21042 11.8873 2.15745 11.8162 2.10435L11.8162 2.10434C11.7889 2.08401 11.7616 2.06366 11.7335 2.04522C11.4991 1.89012 11.1793 1.86997 10.926 1.99658C10.9861 1.9094 11.0163 1.80162 11.0097 1.69559L10.9734 1.7083C10.5584 1.46776 10.0721 1.21803 9.61954 1.3797C9.56969 1.39785 9.52212 1.42026 9.47452 1.44269C9.42214 1.46738 9.36971 1.49209 9.31416 1.51114C9.28009 1.52307 9.24489 1.53288 9.20969 1.54268C9.12859 1.56528 9.04753 1.58786 8.98031 1.63644C8.88217 1.70611 8.83003 1.85989 8.91415 1.94357C8.9683 1.99772 9.04687 1.99973 9.12524 2.00174C9.15024 2.00238 9.17521 2.00302 9.19937 2.00535C9.29751 2.01499 9.41011 2.11269 9.35622 2.19681C8.92247 2.39966 8.48741 2.60427 8.05367 2.80887C8.25301 2.87372 8.38489 3.09979 8.34196 3.30571C8.25612 3.32066 8.1721 3.29618 8.0875 3.27153C8.0283 3.25428 7.96881 3.23695 7.90821 3.23298C7.6944 3.22203 7.49023 3.41042 7.48585 3.62423C7.47972 3.83804 7.676 4.03563 7.88981 4.03257C7.95555 4.03185 8.02077 4.01513 8.08557 3.99852C8.17839 3.97474 8.27034 3.95118 8.36167 3.97517C8.3678 3.82927 8.4677 3.70572 8.57022 3.60145C8.76957 3.40166 9.05435 3.22115 9.32073 3.31929C9.40792 3.35084 9.4824 3.40955 9.55513 3.46782C9.71505 3.59444 9.87497 3.72237 10.0353 3.85074L10.0737 3.81129L10.0737 3.81128L10.0737 3.81127C10.1116 3.77224 10.1493 3.73333 10.1874 3.69565L10.3297 3.84557L10.4502 3.97254C10.4723 3.95745 10.4949 3.94279 10.5174 3.92813L10.5174 3.92811L10.5175 3.92807C10.54 3.91339 10.5626 3.89872 10.5847 3.8836C10.6021 3.92883 10.6199 3.97352 10.6378 4.01827C10.6524 4.05502 10.6671 4.09181 10.6816 4.12895C10.6943 4.0387 10.7052 3.9502 10.7162 3.86126C10.8209 3.86433 10.9317 3.86739 11.0264 3.82007C11.1214 3.77407 11.1911 3.66016 11.1512 3.56202C11.1425 3.54003 11.1288 3.51999 11.1151 3.49999C11.0963 3.47257 11.0775 3.44523 11.0719 3.41305C11.0513 3.30221 11.2095 3.22641 11.3125 3.2768C11.4137 3.32587 11.4645 3.44153 11.5074 3.54756C11.5176 3.50108 11.5275 3.45494 11.5374 3.40883L11.5374 3.4088L11.5374 3.40865C11.5504 3.3479 11.5634 3.28722 11.5771 3.22597C11.6761 3.48622 11.8189 3.72982 11.9964 3.94363C11.6717 3.88185 11.3296 3.91734 11.0259 4.0422C11.1228 4.17846 11.2888 4.25908 11.4553 4.25251C11.4695 4.25217 11.4841 4.25128 11.4986 4.25038C11.5603 4.24657 11.623 4.24271 11.6691 4.28098C11.712 4.31735 11.723 4.37606 11.7309 4.42995L11.7418 4.49511L11.7418 4.49529L11.7418 4.4954C11.7636 4.62518 11.7851 4.75386 11.8054 4.88253C11.6537 4.75804 11.443 4.75611 11.2416 4.75427C11.2155 4.75403 11.1896 4.75379 11.1639 4.75329C10.9405 4.74715 10.6794 4.68538 10.597 4.47814C10.5085 4.57804 10.4691 4.72043 10.4945 4.85362C10.2631 4.79841 9.9972 4.70991 9.93061 4.48165C9.7501 4.54824 9.52534 4.43301 9.47627 4.24769C9.47269 4.23445 9.46965 4.22062 9.46658 4.20669C9.45461 4.15234 9.4423 4.09648 9.39697 4.06893C9.36236 4.04834 9.31767 4.05141 9.27648 4.05622C9.11481 4.07499 8.95343 4.09337 8.79225 4.11172L8.79219 4.11173L8.79186 4.11177C8.61072 4.13239 8.42983 4.15299 8.24907 4.17408L8.24307 4.1748C8.05829 4.19691 7.86745 4.21975 7.70448 4.31034C7.53974 4.40059 7.40874 4.57804 7.42758 4.76512C7.11257 4.9522 6.84531 5.22296 6.6648 5.54148C6.60784 5.63962 6.55877 5.75222 6.58112 5.86307C6.58921 5.90688 6.60813 5.94736 6.62701 5.98774L6.62701 5.98775L6.62701 5.98775C6.64494 6.02611 6.66284 6.06438 6.67137 6.10535C6.69255 6.20635 6.65846 6.30498 6.62424 6.40395C6.60962 6.44624 6.59498 6.48859 6.58462 6.53121C6.48648 6.93648 6.79405 7.31809 7.07927 7.62478C7.21378 7.76717 7.36931 7.92227 7.56559 7.93015C7.67254 7.93439 7.77475 7.89336 7.8752 7.85303L7.91697 7.83639C8.24294 7.70802 8.59782 7.64931 8.94745 7.66333C8.86815 7.72511 8.95051 7.85962 9.04909 7.88021C9.09289 7.8894 9.13825 7.88812 9.18351 7.88684C9.23968 7.88525 9.29568 7.88367 9.34834 7.90211C9.56521 7.97966 9.53542 8.29774 9.43728 8.50542C9.48635 8.49578 9.53717 8.48614 9.58755 8.47694C9.56083 8.5466 9.53366 8.61626 9.50694 8.68417C9.80443 8.72185 9.91702 9.1131 9.8478 9.40577C9.82141 9.51966 9.77902 9.62992 9.73675 9.73983C9.67025 9.91277 9.60408 10.0848 9.60114 10.2689C9.59982 10.4336 9.65021 10.5935 9.70103 10.7499C9.8225 11.1299 9.94358 11.5098 10.065 11.8909L10.0818 11.9434C10.2937 11.9688 10.4518 11.818 10.6149 11.6624C10.7249 11.5575 10.8372 11.4504 10.9698 11.3936C11.012 11.3752 11.0567 11.3618 11.1011 11.3485C11.187 11.3228 11.2719 11.2973 11.3357 11.2367C11.429 11.1482 11.3988 10.9405 11.2787 10.9405C11.4417 10.923 11.581 10.774 11.5859 10.6093C11.5865 10.5911 11.5859 10.5729 11.5853 10.5547C11.5844 10.5269 11.5835 10.4993 11.5872 10.4717C11.5979 10.4083 11.6375 10.3525 11.6761 10.298L11.6787 10.2943C11.9255 9.94006 12.087 9.53522 12.247 9.13439L12.2562 9.11135C12.2774 9.05657 12.2988 9.00235 12.3202 8.94812C12.3415 8.89391 12.3629 8.8397 12.3841 8.78494L12.6251 8.17594L12.8665 7.56563C12.8958 7.49146 12.9251 7.41767 12.9545 7.34387L12.9545 7.34373L12.9546 7.34359L12.9548 7.34304C12.9886 7.25798 13.0225 7.1729 13.0562 7.08719C12.969 7.23134 12.7412 7.2125 12.6111 7.10472C12.5255 7.03487 12.4667 6.94128 12.4077 6.84736C12.376 6.79694 12.3443 6.74643 12.3083 6.69945C12.2843 6.66762 12.258 6.63678 12.2317 6.60586L12.2317 6.60585C12.1623 6.52442 12.0924 6.44243 12.0625 6.34019C12.0482 6.29141 12.0442 6.24023 12.0401 6.18878C12.0374 6.15519 12.0348 6.12149 12.0292 6.08826C12.0068 5.96063 11.9413 5.84803 11.8757 5.73543C11.8476 5.68724 11.8195 5.63905 11.7948 5.58967C11.7125 5.42494 11.6695 5.21157 11.7852 5.06699C12.1182 5.64794 12.4209 6.24599 12.6948 6.85893C12.725 6.76386 12.7947 6.68149 12.8832 6.63549C12.9219 6.61454 12.9635 6.6011 13.0052 6.5876C13.0334 6.57851 13.0616 6.5694 13.0891 6.55794C13.2696 6.47864 13.3944 6.28717 13.3944 6.09089C13.3927 5.89461 13.2678 5.70315 13.0856 5.6256C13.05 5.61057 13.0124 5.59957 12.9748 5.58852L12.9748 5.58852C12.9169 5.57155 12.8587 5.55449 12.8069 5.52264C12.7215 5.47226 12.6597 5.35659 12.7136 5.27247C12.764 5.19317 12.8862 5.19492 12.9699 5.23917C13.0169 5.26487 13.0569 5.30043 13.0969 5.33589C13.1284 5.3639 13.1599 5.39185 13.1947 5.41486C13.2282 5.43733 13.2651 5.45522 13.3025 5.47331C13.3284 5.48591 13.3546 5.49861 13.38 5.513C13.7143 5.70446 13.7966 6.13996 13.8667 6.51982C13.9047 6.72315 13.9474 6.92517 13.998 7.12372ZM4.62334 0.810746C4.54651 0.862925 4.46971 0.915085 4.38614 0.955146L4.44485 0.94945C4.50298 0.971129 4.57304 0.951561 4.63932 0.933048C4.7244 0.909282 4.80326 0.887255 4.84267 0.95646C4.85103 0.970798 4.85514 0.987126 4.85923 1.00339L4.85923 1.00339L4.85924 1.0034L4.85924 1.0034C4.86415 1.02291 4.86904 1.04233 4.88122 1.05811C4.89209 1.07221 4.90746 1.08155 4.92285 1.0909C4.93662 1.09927 4.95041 1.10765 4.96096 1.11944C5.01266 1.17684 4.95833 1.27104 4.88955 1.30609C4.86284 1.31987 4.83395 1.32955 4.80519 1.33919C4.75988 1.35438 4.71489 1.36946 4.67925 1.40028C4.56095 1.50281 4.63806 1.72231 4.78571 1.77401C4.93336 1.82571 5.09941 1.75166 5.21245 1.64345C5.23611 1.62084 5.25894 1.59637 5.28181 1.57185C5.3538 1.49467 5.42628 1.41697 5.52702 1.39503C5.56929 1.38569 5.61254 1.38742 5.6558 1.38916C5.69371 1.39068 5.73163 1.3922 5.76887 1.38626C5.85539 1.37253 5.92745 1.3216 6.00005 1.27029C6.04325 1.23976 6.08664 1.20909 6.13339 1.18604C6.2769 1.11544 6.44206 1.11991 6.60637 1.12436C6.7847 1.12918 6.96201 1.13398 7.10954 1.04277C6.99388 1.04365 6.88916 0.936744 6.89223 0.821517C7.0355 0.862263 7.18402 0.788657 7.31459 0.716804C7.412 0.663571 7.50926 0.610176 7.60645 0.556817L7.60651 0.556784L7.60655 0.556762L7.79478 0.453489L5.72462 0.517894C5.42143 0.527533 5.10642 0.5398 4.83653 0.678249C4.76211 0.716501 4.69271 0.763631 4.62334 0.810746ZM3.47875 1.9221C3.4104 1.95584 3.3162 1.91772 3.29079 1.84587C3.26494 1.77402 3.31357 1.68508 3.38806 1.66799C3.39947 1.66532 3.41197 1.66362 3.42456 1.6619C3.4637 1.65656 3.50374 1.6511 3.51467 1.61629C3.51787 1.60607 3.51734 1.59516 3.51681 1.5844V1.58439V1.58439V1.58439V1.58438V1.58438C3.51662 1.58038 3.51643 1.5764 3.51643 1.57248C3.51467 1.48573 3.59222 1.41387 3.67591 1.39197C3.75959 1.3705 3.84809 1.38715 3.93309 1.4038C3.96332 1.46645 3.97208 1.53918 3.95762 1.60709L3.87022 1.61081L3.78281 1.61454C3.78807 1.71136 3.77843 1.83316 3.68861 1.86909C3.65255 1.8834 3.61158 1.87938 3.57132 1.87544C3.52156 1.87056 3.47286 1.86579 3.43581 1.89582L3.47875 1.9221ZM3.14359 2.97972L3.15761 3.0082C3.21018 3.084 3.31621 3.10591 3.40647 3.08531C3.49658 3.06432 3.57402 3.00925 3.64971 2.95544L3.65006 2.95519C3.68643 2.92846 3.72279 2.9013 3.74514 2.86187C3.68855 2.88828 3.6482 2.87623 3.60676 2.86386C3.58083 2.85612 3.55448 2.84825 3.52345 2.8496C3.48162 2.85089 3.4635 2.8452 3.44902 2.84066C3.42908 2.8344 3.41604 2.83031 3.35739 2.8496C3.31882 2.86271 3.29549 2.88563 3.27189 2.90882C3.24109 2.93909 3.20983 2.9698 3.14359 2.97972ZM6.48165 1.53742C6.54596 1.52262 6.60445 1.4918 6.66314 1.46088C6.68961 1.44693 6.71611 1.43297 6.74321 1.42044C6.8304 1.38013 6.93423 1.35647 7.01967 1.39897C7.04508 1.4625 6.97191 1.52033 6.90751 1.54311C6.78396 1.58649 6.64989 1.59832 6.52064 1.57685L6.48165 1.53742ZM12.6391 4.47201C12.6759 4.50049 12.7184 4.53072 12.7644 4.53378C12.8117 4.53685 12.8656 4.50355 12.8656 4.4558C12.8641 4.41787 12.8337 4.39025 12.8051 4.36437L12.7911 4.35152C12.7596 4.32173 12.7355 4.26784 12.7657 4.23761C12.78 4.23213 12.7938 4.22699 12.8076 4.22184L12.8076 4.22183C12.8214 4.21668 12.8352 4.21154 12.8494 4.20606C12.8634 4.10792 12.7762 4.02249 12.6877 3.97649C12.6615 3.96246 12.6341 3.95025 12.6068 3.93806C12.542 3.90913 12.4775 3.88037 12.4297 3.82796C12.4214 3.82139 12.4152 3.81219 12.4152 3.80255C12.4152 3.78976 12.4247 3.78101 12.4342 3.77232L12.4406 3.76618C12.5243 3.69521 12.4735 3.53047 12.3644 3.51777L12.4293 3.48272C12.4087 3.44022 12.3583 3.41481 12.3123 3.42269C12.2154 3.43846 12.1857 3.56508 12.2062 3.66016C12.2299 3.7675 12.2934 3.86739 12.3806 3.93705C12.3879 3.94292 12.3955 3.94864 12.4032 3.95439C12.4304 3.97486 12.4583 3.99581 12.4757 4.02556C12.5035 4.07183 12.5003 4.12594 12.4971 4.18065C12.4949 4.21917 12.4926 4.25799 12.5011 4.29457C12.5186 4.36905 12.5791 4.42469 12.6391 4.47201ZM12.81 9.40488L12.6957 9.48594C12.7355 9.62614 12.6558 9.79044 12.5204 9.8452C12.5045 9.85164 12.4875 9.85727 12.4703 9.86294L12.4703 9.86295C12.4102 9.88277 12.3486 9.90311 12.3298 9.95999C12.3174 9.99838 12.331 10.0371 12.3447 10.0764C12.3533 10.1007 12.3619 10.1253 12.3644 10.1501C12.3732 10.2399 12.3048 10.3108 12.2397 10.3783C12.2266 10.3919 12.2136 10.4053 12.2015 10.4187C12.1287 10.4989 12.0902 10.6496 12.187 10.6978C12.2092 10.7091 12.2348 10.7113 12.2596 10.7135L12.2602 10.7136C12.3653 10.7228 12.4805 10.7258 12.5664 10.6645C12.6899 10.5764 12.6926 10.4125 12.6953 10.2483C12.698 10.0851 12.7007 9.92158 12.8218 9.83162C12.8309 9.82501 12.8405 9.81887 12.8501 9.81272C12.8774 9.79526 12.9047 9.77777 12.9187 9.74925C12.9478 9.69161 12.9076 9.6342 12.8669 9.57615C12.8274 9.51992 12.7876 9.46309 12.81 9.40488Z" fill="#8396A1"/>
</svg>
