<svg width="12" height="14" viewBox="0 0 12 14" fill="none" xmlns="http://www.w3.org/2000/svg">
<path d="M9.29763 0H0.53125V14H11.4688V2.17112L9.29763 0ZM6.58947 3.41082H7.29986C7.56892 3.41082 7.74447 3.42176 7.82595 3.44363C7.95173 3.47645 8.05673 3.54754 8.1415 3.658C8.22626 3.76847 8.26892 3.91066 8.26892 4.08566C8.26892 4.22019 8.24431 4.33284 8.19564 4.42473C8.14697 4.51661 8.08517 4.58824 8.0097 4.64075C7.93424 4.6927 7.85768 4.72715 7.78002 4.74465C7.67447 4.76543 7.52134 4.77582 7.3212 4.77582H7.03245V5.60325H6.58947L6.58947 3.41082ZM5.7254 3.41082H6.16838V5.60322H5.7254V3.41082ZM3.67846 5.20408L4.83019 3.78168H3.80917V3.4109H5.41371V3.75488L4.21277 5.23412H5.4602V5.60326H3.67898L3.67846 5.20408ZM9.27791 10.9556H2.72198V10.5181H9.27846L9.27791 10.9556ZM9.27791 9.40632H2.72198V8.96882H9.27846L9.27791 9.40632Z" fill="#8396A1"/>
<path d="M7.62447 4.36896C7.68354 4.34599 7.72947 4.31044 7.76283 4.26122C7.79619 4.21255 7.8126 4.15568 7.8126 4.09115C7.8126 4.01131 7.78908 3.94568 7.7426 3.89372C7.69557 3.84177 7.6365 3.8095 7.56432 3.79638C7.51182 3.78654 7.40573 3.78161 7.24605 3.78161L7.03223 3.78107V4.40341H7.2745C7.44895 4.40341 7.56597 4.39192 7.62449 4.36896L7.62447 4.36896Z" fill="#8396A1"/>
</svg>
